<svg width="128" height="128" viewBox="0 0 128 128" fill="none" xmlns="http://www.w3.org/2000/svg">
<path d="M64 0C28.672 0 0 28.672 0 64C0 99.328 28.672 128 64 128C99.328 128 128 99.328 128 64C128 28.672 99.328 0 64 0ZM53.3213 93.8787C52.1497 95.0503 50.2503 95.0503 49.0787 93.8787L21.3213 66.1213C20.1497 64.9497 20.1497 63.0503 21.3213 61.8787L26.1056 57.0944C27.2761 55.9239 29.1733 55.9226 30.3453 57.0914L49.0787 75.7726C50.2507 76.9414 52.1479 76.9401 53.3184 75.7696L97.6472 31.4408C98.8217 30.2663 100.727 30.2697 101.897 31.4483L106.694 36.2787C107.858 37.4515 107.855 39.3452 106.686 40.5138L53.3213 93.8787Z" fill="#B7D9E8"/>
</svg>
