<?xml version="1.0" encoding="UTF-8"?><svg xmlns="http://www.w3.org/2000/svg" viewBox="0 0 49.67 71.13"><defs><style>.d{fill:#b8d9e8;}.e{fill:#410099;}</style></defs><g id="a"/><g id="b"><g id="c"><g><path class="d" d="M49.67,.58c0-.32-.26-.58-.58-.58H17.26C7.73,0,0,7.73,0,17.26H0v20.88c0,.32,.26,.58,.58,.58H16.67c.32,0,.58-.26,.58-.58v-15.62c0-2.91,2.36-5.26,5.26-5.26h26.56c.32,0,.58-.26,.58-.58V.58Z"/><path class="e" d="M0,70.55c0,.32,.26,.58,.58,.58h31.83c9.53,0,17.26-7.73,17.26-17.26h0v-20.88c0-.32-.26-.58-.58-.58h-16.09c-.32,0-.58,.26-.58,.58v15.62c0,2.91-2.36,5.26-5.26,5.26H.58c-.32,0-.58,.26-.58,.58v16.09Z"/></g></g></g></svg>