<?xml version="1.0" encoding="UTF-8"?><svg xmlns="http://www.w3.org/2000/svg" viewBox="0 0 118 169"><defs><style>.d{fill:#2a0b89;}.e{fill:#95b1ba;}.f{fill:#430bc8;}.g{fill:#b7d9e8;}</style></defs><g id="a"/><g id="b"><g id="c"><g><path class="f" d="M0,167.61c0,.77,.62,1.39,1.39,1.39H77c22.64,0,41-18.36,41-41h0v-49.61c0-.77-.62-1.39-1.39-1.39h-38.22c-.77,0-1.39,.62-1.39,1.39v37.11c0,6.9-5.6,12.5-12.5,12.5H1.39c-.77,0-1.39,.62-1.39,1.39v38.22Z"/><path class="g" d="M118,1.39c0-.77-.62-1.39-1.39-1.39H41C18.36,0,0,18.36,0,41H0v49.61c0,.77,.62,1.39,1.39,1.39H39.61c.77,0,1.39-.62,1.39-1.39V53.5c0-6.9,5.6-12.5,12.5-12.5h63.11c.77,0,1.39-.62,1.39-1.39V1.39Z"/><path class="e" d="M26,53.5v37.11c0,.77-.62,1.39-1.39,1.39h15c.77,0,1.39-.62,1.39-1.39V53.5c0-6.9,5.6-12.5,12.5-12.5h-15c-6.9,0-12.5,5.6-12.5,12.5Z"/><path class="d" d="M92,115.5v-37.11c0-.77,.62-1.39,1.39-1.39h-15c-.77,0-1.39,.62-1.39,1.39v37.11c0,6.9-5.6,12.5-12.5,12.5h15c6.9,0,12.5-5.6,12.5-12.5Z"/></g></g></g></svg>