<svg width="32" height="32" viewBox="0 0 32 32" fill="none" xmlns="http://www.w3.org/2000/svg">
<path d="M29.3334 8.33341V15.1334C29.3334 16.8267 28.7734 18.2534 27.7734 19.2401C26.7868 20.2401 25.3601 20.8 23.6667 20.8V23.2134C23.6667 24.12 22.6534 24.6667 21.9067 24.1601L20.6134 23.3067C20.7334 22.8934 20.7867 22.44 20.7867 21.96V16.5334C20.7867 13.8134 18.9734 12.0001 16.2534 12.0001H7.20007C7.01341 12.0001 6.84008 12.0134 6.66675 12.0268V8.33341C6.66675 4.93341 8.93341 2.66675 12.3334 2.66675H23.6667C27.0667 2.66675 29.3334 4.93341 29.3334 8.33341Z" stroke="#0E0E14" stroke-width="1.5" stroke-miterlimit="10" stroke-linecap="round" stroke-linejoin="round"/>
<path d="M20.7867 16.5334V21.96C20.7867 22.44 20.7334 22.8933 20.6134 23.3066C20.1201 25.2666 18.4934 26.4933 16.2534 26.4933H12.6267L8.60008 29.1733C8.00008 29.5867 7.20007 29.1467 7.20007 28.4267V26.4933C5.84007 26.4933 4.70675 26.04 3.92008 25.2533C3.12008 24.4533 2.66675 23.32 2.66675 21.96V16.5334C2.66675 14 4.24008 12.2534 6.66675 12.0267C6.84008 12.0134 7.01341 12 7.20007 12H16.2534C18.9734 12 20.7867 13.8134 20.7867 16.5334Z" stroke="#0E0E14" stroke-width="1.5" stroke-miterlimit="10" stroke-linecap="round" stroke-linejoin="round"/>
</svg>
